Maitree-500.ufo
<glyph name="O" format="2">
	<advance width="745"/>
	<unicode hex="004F"/>
	<note>
		O
	</note>
	<outline>
		<contour>
			<point x="373" y="-13" type="curve" smooth="yes"/>
			<point x="561" y="-13"/>
			<point x="699" y="101"/>
			<point x="699" y="347" type="curve" smooth="yes"/>
			<point x="699" y="592"/>
			<point x="561" y="708"/>
			<point x="373" y="708" type="curve" smooth="yes"/>
			<point x="185" y="708"/>
			<point x="47" y="592"/>
			<point x="47" y="347" type="curve" smooth="yes"/>
			<point x="47" y="101"/>
			<point x="185" y="-13"/>
		</contour>
		<contour>
			<point x="372" y="53" type="curve" smooth="yes"/>
			<point x="226" y="53"/>
			<point x="148" y="159"/>
			<point x="148" y="347" type="curve" smooth="yes"/>
			<point x="148" y="534"/>
			<point x="226" y="642"/>
			<point x="372" y="642" type="curve" smooth="yes"/>
			<point x="518" y="642"/>
			<point x="597" y="534"/>
			<point x="597" y="347" type="curve" smooth="yes"/>
			<point x="597" y="159"/>
			<point x="518" y="53"/>
		</contour>
	</outline>
</glyph>
<glyph name="backslash" format="2">
	<advance width="374"/>
	<unicode hex="005C"/>
	<note>
		backslash
	</note>
	<outline>
		<contour>
			<point x="316" y="-134" type="line"/>
			<point x="403" y="-101" type="line"/>
			<point x="57" y="750" type="line"/>
			<point x="-30" y="717" type="line"/>
		</contour>
	</outline>
</glyph>
<glyph name="brokenbar" format="2">
	<advance width="310"/>
	<unicode hex="00A6"/>
	<note>
		brokenbar
	</note>
	<outline>
		<contour>
			<point x="108" y="360" type="line"/>
			<point x="202" y="360" type="line"/>
			<point x="202" y="735" type="line"/>
			<point x="108" y="735" type="line"/>
		</contour>
		<contour>
			<point x="108" y="-170" type="line"/>
			<point x="202" y="-170" type="line"/>
			<point x="202" y="205" type="line"/>
			<point x="108" y="205" type="line"/>
		</contour>
	</outline>
</glyph>
<glyph name="softhyphen" format="2">
	<advance width="299"/>
	<unicode hex="00AD"/>
	<note>
		softhyphen
	</note>
	<outline>
		<contour>
			<point x="45" y="273" type="line"/>
			<point x="255" y="273" type="line"/>
			<point x="255" y="352" type="line"/>
			<point x="45" y="352" type="line"/>
		</contour>
	</outline>
</glyph>
<glyph name="macron" format="2">
	<advance width="379"/>
	<unicode hex="00AF"/>
	<note>
		macron
	</note>
	<outline>
		<contour>
			<point x="46" y="566" type="line"/>
			<point x="333" y="566" type="line"/>
			<point x="333" y="632" type="line"/>
			<point x="46" y="632" type="line"/>
		</contour>
	</outline>
</glyph>
<glyph name="acute" format="2">
	<advance width="305"/>
	<unicode hex="00B4"/>
	<note>
		acute
	</note>
	<outline>
		<contour>
			<point x="128" y="537" type="line"/>
			<point x="240" y="683" type="line"/>
			<point x="167" y="730" type="line"/>
			<point x="73" y="573" type="line"/>
		</contour>
	</outline>
</glyph>
<glyph name="amacron" format="2">
	<advance width="537"/>
	<unicode hex="0101"/>
	<note>
		amacron
	</note>
	<outline>
		<contour>
			<point x="122" y="584" type="line"/>
			<point x="409" y="584" type="line"/>
			<point x="409" y="650" type="line"/>
			<point x="122" y="650" type="line"/>
		</contour>
		<component base="a"/>
	</outline>
</glyph>
<glyph name="cacute" format="2">
	<advance width="490"/>
	<unicode hex="0107"/>
	<note>
		cacute
	</note>
	<outline>
		<contour>
			<point x="250" y="560" type="line"/>
			<point x="362" y="706" type="line"/>
			<point x="289" y="753" type="line"/>
			<point x="195" y="596" type="line"/>
		</contour>
		<component base="c"/>
	</outline>
</glyph>
<glyph name="racute" format="2">
	<advance width="434"/>
	<unicode hex="0155"/>
	<note>
		racute
	</note>
	<outline>
		<contour>
			<point x="193" y="560" type="line"/>
			<point x="305" y="706" type="line"/>
			<point x="232" y="753" type="line"/>
			<point x="138" y="596" type="line"/>
		</contour>
		<component base="r"/>
	</outline>
</glyph>
<glyph name="Zdotaccent" format="2">
	<advance width="632"/>
	<unicode hex="017B"/>
	<note>
		Zdotaccent
	</note>
	<outline>
		<contour>
			<point x="323" y="769" type="curve" smooth="yes"/>
			<point x="354" y="769"/>
			<point x="378" y="793"/>
			<point x="378" y="824" type="curve" smooth="yes"/>
			<point x="378" y="856"/>
			<point x="354" y="880"/>
			<point x="323" y="880" type="curve" smooth="yes"/>
			<point x="293" y="880"/>
			<point x="268" y="856"/>
			<point x="268" y="824" type="curve" smooth="yes"/>
			<point x="268" y="793"/>
			<point x="293" y="769"/>
		</contour>
		<component base="Z"/>
	</outline>
</glyph>
<glyph name="uni0326" format="2">
	<advance width="0"/>
	<unicode hex="0326"/>
	<note>
		uni0326
	</note>
	<outline>
		<contour>
			<point x="112" y="-238" type="line"/>
			<point x="233" y="-88" type="line"/>
			<point x="165" y="-46" type="line"/>
			<point x="64" y="-204" type="line"/>
		</contour>
	</outline>
</glyph>
<glyph name="phinthu-thai" format="2">
	<advance width="0"/>
	<unicode hex="0E3A"/>
	<anchor x="-80" y="0" name="_bottom"/>
	<anchor x="-80" y="-210" name="bottom"/>
	<note>
		phinthu-thai
	</note>
	<outline>
		<contour>
			<point x="-125" y="-192" type="curve" smooth="yes"/>
			<point x="-91" y="-192"/>
			<point x="-59" y="-166"/>
			<point x="-59" y="-126" type="curve" smooth="yes"/>
			<point x="-59" y="-86"/>
			<point x="-91" y="-60"/>
			<point x="-125" y="-60" type="curve" smooth="yes"/>
			<point x="-160" y="-60"/>
			<point x="-192" y="-86"/>
			<point x="-192" y="-126" type="curve" smooth="yes"/>
			<point x="-192" y="-166"/>
			<point x="-160" y="-192"/>
		</contour>
	</outline>
</glyph>
<glyph name="maiEk-thai" format="2">
	<advance width="0"/>
	<unicode hex="0E48"/>
	<anchor x="-80" y="532" name="top"/>
	<anchor x="-80" y="278" name="_top"/>
	<note>
		maiEk-thai
	</note>
	<outline>
		<contour>
			<point x="-115" y="638" type="curve" smooth="yes"/>
			<point x="-92" y="638"/>
			<point x="-80" y="651"/>
			<point x="-80" y="667" type="curve" smooth="yes"/>
			<point x="-80" y="805" type="line" smooth="yes"/>
			<point x="-80" y="830"/>
			<point x="-94" y="845"/>
			<point x="-124" y="845" type="curve" smooth="yes"/>
			<point x="-146" y="845"/>
			<point x="-159" y="831"/>
			<point x="-159" y="815" type="curve" smooth="yes"/>
			<point x="-159" y="678" type="line" smooth="yes"/>
			<point x="-159" y="653"/>
			<point x="-144" y="638"/>
		</contour>
	</outline>
</glyph>
<glyph name="nikhahit-thai" format="2">
	<advance width="0"/>
	<unicode hex="0E4D"/>
	<anchor x="-81" y="512" name="top"/>
	<anchor x="-81" y="278" name="_top"/>
	<note>
		nikhahit-thai
	</note>
	<outline>
		<contour>
			<point x="-128" y="629" type="curve" smooth="yes"/>
			<point x="-74" y="629"/>
			<point x="-27" y="663"/>
			<point x="-27" y="725" type="curve" smooth="yes"/>
			<point x="-27" y="788"/>
			<point x="-74" y="822"/>
			<point x="-128" y="822" type="curve" smooth="yes"/>
			<point x="-182" y="822"/>
			<point x="-229" y="788"/>
			<point x="-229" y="725" type="curve" smooth="yes"/>
			<point x="-229" y="663"/>
			<point x="-182" y="629"/>
		</contour>
		<contour>
			<point x="-128" y="676" type="curve" smooth="yes"/>
			<point x="-154" y="676"/>
			<point x="-174" y="693"/>
			<point x="-174" y="725" type="curve" smooth="yes"/>
			<point x="-174" y="758"/>
			<point x="-154" y="774"/>
			<point x="-128" y="774" type="curve" smooth="yes"/>
			<point x="-103" y="774"/>
			<point x="-82" y="758"/>
			<point x="-82" y="725" type="curve" smooth="yes"/>
			<point x="-82" y="694"/>
			<point x="-103" y="676"/>
		</contour>
	</outline>
</glyph>
<glyph name="Sdotbelow" format="2">
	<advance width="596"/>
	<unicode hex="1E62"/>
	<note>
		Sdotbelow
	</note>
	<outline>
		<contour>
			<point x="297" y="-177" type="curve" smooth="yes"/>
			<point x="328" y="-177"/>
			<point x="352" y="-153"/>
			<point x="352" y="-121" type="curve" smooth="yes"/>
			<point x="352" y="-89"/>
			<point x="328" y="-66"/>
			<point x="297" y="-66" type="curve" smooth="yes"/>
			<point x="267" y="-66"/>
			<point x="242" y="-89"/>
			<point x="242" y="-121" type="curve" smooth="yes"/>
			<point x="242" y="-153"/>
			<point x="267" y="-177"/>
		</contour>
		<component base="S"/>
	</outline>
</glyph>
<glyph name="Ocircumflextilde" format="2">
	<advance width="745"/>
	<unicode hex="1ED6"/>
	<note>
		Ocircumflextilde
	</note>
	<outline>
		<contour>
			<point x="373" y="-13" type="curve" smooth="yes"/>
			<point x="561" y="-13"/>
			<point x="699" y="101"/>
			<point x="699" y="347" type="curve" smooth="yes"/>
			<point x="699" y="592"/>
			<point x="561" y="708"/>
			<point x="373" y="708" type="curve" smooth="yes"/>
			<point x="185" y="708"/>
			<point x="47" y="592"/>
			<point x="47" y="347" type="curve" smooth="yes"/>
			<point x="47" y="101"/>
			<point x="185" y="-13"/>
		</contour>
		<contour>
			<point x="372" y="53" type="curve" smooth="yes"/>
			<point x="226" y="53"/>
			<point x="148" y="159"/>
			<point x="148" y="347" type="curve" smooth="yes"/>
			<point x="148" y="534"/>
			<point x="226" y="642"/>
			<point x="372" y="642" type="curve" smooth="yes"/>
			<point x="518" y="642"/>
			<point x="597" y="534"/>
			<point x="597" y="347" type="curve" smooth="yes"/>
			<point x="597" y="159"/>
			<point x="518" y="53"/>
		</contour>
		<contour>
			<point x="281" y="752" type="line"/>
			<point x="373" y="854" type="line"/>
			<point x="466" y="752" type="line"/>
			<point x="510" y="789" type="line"/>
			<point x="398" y="932" type="line"/>
			<point x="349" y="932" type="line"/>
			<point x="237" y="789" type="line"/>
		</contour>
		<contour>
			<point x="423" y="962" type="curve" smooth="yes"/>
			<point x="448" y="962"/>
			<point x="475" y="977"/>
			<point x="498" y="1000" type="curve"/>
			<point x="471" y="1040" type="line"/>
			<point x="456" y="1028"/>
			<point x="440" y="1021"/>
			<point x="422" y="1021" type="curve" smooth="yes"/>
			<point x="392" y="1021"/>
			<point x="362" y="1050"/>
			<point x="329" y="1050" type="curve" smooth="yes"/>
			<point x="305" y="1050"/>
			<point x="275" y="1033"/>
			<point x="252" y="1013" type="curve"/>
			<point x="279" y="971" type="line"/>
			<point x="294" y="982"/>
			<point x="309" y="992"/>
			<point x="329" y="992" type="curve" smooth="yes"/>
			<point x="362" y="992"/>
			<point x="387" y="962"/>
		</contour>
	</outline>
</glyph>
<glyph name="ocircumflextilde" format="2">
	<advance width="550"/>
	<unicode hex="1ED7"/>
	<note>
		ocircumflextilde
	</note>
	<outline>
		<contour>
			<point x="275" y="-13" type="curve" smooth="yes"/>
			<point x="414" y="-13"/>
			<point x="513" y="78"/>
			<point x="513" y="244" type="curve" smooth="yes"/>
			<point x="513" y="409"/>
			<point x="414" y="500"/>
			<point x="275" y="500" type="curve" smooth="yes"/>
			<point x="136" y="500"/>
			<point x="37" y="409"/>
			<point x="37" y="244" type="curve" smooth="yes"/>
			<point x="37" y="78"/>
			<point x="136" y="-13"/>
		</contour>
		<contour>
			<point x="275" y="47" type="curve" smooth="yes"/>
			<point x="184" y="47"/>
			<point x="131" y="118"/>
			<point x="131" y="244" type="curve" smooth="yes"/>
			<point x="131" y="370"/>
			<point x="184" y="440"/>
			<point x="275" y="440" type="curve" smooth="yes"/>
			<point x="366" y="440"/>
			<point x="418" y="370"/>
			<point x="418" y="244" type="curve" smooth="yes"/>
			<point x="418" y="118"/>
			<point x="366" y="47"/>
		</contour>
		<contour>
			<point x="182" y="560" type="line"/>
			<point x="274" y="662" type="line"/>
			<point x="367" y="560" type="line"/>
			<point x="411" y="597" type="line"/>
			<point x="299" y="740" type="line"/>
			<point x="250" y="740" type="line"/>
			<point x="138" y="597" type="line"/>
		</contour>
		<contour>
			<point x="324" y="770" type="curve" smooth="yes"/>
			<point x="349" y="770"/>
			<point x="376" y="785"/>
			<point x="399" y="808" type="curve"/>
			<point x="372" y="848" type="line"/>
			<point x="357" y="836"/>
			<point x="341" y="829"/>
			<point x="323" y="829" type="curve" smooth="yes"/>
			<point x="293" y="829"/>
			<point x="263" y="858"/>
			<point x="230" y="858" type="curve" smooth="yes"/>
			<point x="206" y="858"/>
			<point x="176" y="841"/>
			<point x="153" y="821" type="curve"/>
			<point x="180" y="779" type="line"/>
			<point x="195" y="790"/>
			<point x="210" y="800"/>
			<point x="230" y="800" type="curve" smooth="yes"/>
			<point x="263" y="800"/>
			<point x="288" y="770"/>
		</contour>
	</outline>
</glyph>
<glyph name="ygrave" format="2">
	<advance width="564"/>
	<unicode hex="1EF3"/>
	<note>
		ygrave
	</note>
	<outline>
		<contour>
			<point x="274" y="560" type="line"/>
			<point x="329" y="596" type="line"/>
			<point x="235" y="753" type="line"/>
			<point x="162" y="706" type="line"/>
		</contour>
		<component base="y"/>
	</outline>
</glyph>
<glyph name="maiEk-thai.small" format="2">
	<advance width="0"/>
	<anchor x="-81" y="713" name="top"/>
	<anchor x="-81" y="512" name="_top"/>
	<note>
		maiEk-thai.small
	</note>
	<outline>
		<contour>
			<point x="-114" y="880" type="curve" smooth="yes"/>
			<point x="-92" y="880"/>
			<point x="-84" y="894"/>
			<point x="-84" y="910" type="curve" smooth="yes"/>
			<point x="-84" y="1025" type="line" smooth="yes"/>
			<point x="-84" y="1050"/>
			<point x="-94" y="1065"/>
			<point x="-123" y="1065" type="curve" smooth="yes"/>
			<point x="-144" y="1065"/>
			<point x="-154" y="1052"/>
			<point x="-154" y="1035" type="curve" smooth="yes"/>
			<point x="-154" y="920" type="line" smooth="yes"/>
			<point x="-154" y="895"/>
			<point x="-142" y="880"/>
		</contour>
	</outline>
</glyph>
<glyph name="nikhahit_maiChattawa-thai" format="2">
	<advance width="0"/>
	<anchor x="-81" y="512" name="top"/>
	<anchor x="-81" y="278" name="_top"/>
	<outline>
		<contour>
			<point x="-128" y="629" type="curve" smooth="yes"/>
			<point x="-74" y="629"/>
			<point x="-27" y="663"/>
			<point x="-27" y="725" type="curve" smooth="yes"/>
			<point x="-27" y="788"/>
			<point x="-74" y="822"/>
			<point x="-128" y="822" type="curve" smooth="yes"/>
			<point x="-182" y="822"/>
			<point x="-229" y="788"/>
			<point x="-229" y="725" type="curve" smooth="yes"/>
			<point x="-229" y="663"/>
			<point x="-182" y="629"/>
		</contour>
		<contour>
			<point x="-128" y="676" type="curve" smooth="yes"/>
			<point x="-154" y="676"/>
			<point x="-174" y="693"/>
			<point x="-174" y="725" type="curve" smooth="yes"/>
			<point x="-174" y="758"/>
			<point x="-154" y="774"/>
			<point x="-128" y="774" type="curve" smooth="yes"/>
			<point x="-103" y="774"/>
			<point x="-82" y="758"/>
			<point x="-82" y="725" type="curve" smooth="yes"/>
			<point x="-82" y="694"/>
			<point x="-103" y="676"/>
		</contour>
		<contour>
			<point x="-112" y="880" type="curve" smooth="yes"/>
			<point x="-91" y="880"/>
			<point x="-78" y="895"/>
			<point x="-81" y="916" type="curve" smooth="yes"/>
			<point x="-87" y="969" type="line"/>
			<point x="-49" y="965" type="line" smooth="yes"/>
			<point x="-19" y="962"/>
			<point x="2" y="969"/>
			<point x="2" y="999" type="curve" smooth="yes"/>
			<point x="2" y="1023"/>
			<point x="-13" y="1030"/>
			<point x="-41" y="1027" type="curve" smooth="yes"/>
			<point x="-87" y="1023" type="line"/>
			<point x="-83" y="1061" type="line" smooth="yes"/>
			<point x="-80" y="1091"/>
			<point x="-90" y="1112"/>
			<point x="-120" y="1112" type="curve" smooth="yes"/>
			<point x="-142" y="1112"/>
			<point x="-153" y="1097"/>
			<point x="-151" y="1076" type="curve" smooth="yes"/>
			<point x="-146" y="1023" type="line"/>
			<point x="-183" y="1027" type="line" smooth="yes"/>
			<point x="-213" y="1030"/>
			<point x="-233" y="1023"/>
			<point x="-233" y="992" type="curve" smooth="yes"/>
			<point x="-233" y="969"/>
			<point x="-219" y="963"/>
			<point x="-191" y="965" type="curve" smooth="yes"/>
			<point x="-146" y="969" type="line"/>
			<point x="-150" y="931" type="line" smooth="yes"/>
			<point x="-153" y="900"/>
			<point x="-143" y="880"/>
		</contour>
	</outline>
</glyph>
<glyph name="nikhahit_maiChattawa-thai.narrow" format="2">
	<advance width="0"/>
	<anchor x="-315" y="512" name="top"/>
	<anchor x="-233" y="278" name="_top"/>
	<outline>
		<contour>
			<point x="-354" y="629" type="curve" smooth="yes"/>
			<point x="-300" y="629"/>
			<point x="-254" y="663"/>
			<point x="-254" y="725" type="curve" smooth="yes"/>
			<point x="-254" y="788"/>
			<point x="-300" y="822"/>
			<point x="-354" y="822" type="curve" smooth="yes"/>
			<point x="-409" y="822"/>
			<point x="-456" y="788"/>
			<point x="-456" y="725" type="curve" smooth="yes"/>
			<point x="-456" y="663"/>
			<point x="-409" y="629"/>
		</contour>
		<contour>
			<point x="-354" y="676" type="curve" smooth="yes"/>
			<point x="-380" y="676"/>
			<point x="-401" y="693"/>
			<point x="-401" y="725" type="curve" smooth="yes"/>
			<point x="-401" y="758"/>
			<point x="-380" y="774"/>
			<point x="-354" y="774" type="curve" smooth="yes"/>
			<point x="-329" y="774"/>
			<point x="-309" y="758"/>
			<point x="-309" y="725" type="curve" smooth="yes"/>
			<point x="-309" y="694"/>
			<point x="-329" y="676"/>
		</contour>
		<contour>
			<point x="-352" y="880" type="curve" smooth="yes"/>
			<point x="-331" y="880"/>
			<point x="-318" y="895"/>
			<point x="-321" y="916" type="curve" smooth="yes"/>
			<point x="-327" y="969" type="line"/>
			<point x="-289" y="965" type="line" smooth="yes"/>
			<point x="-259" y="962"/>
			<point x="-238" y="969"/>
			<point x="-238" y="999" type="curve" smooth="yes"/>
			<point x="-238" y="1023"/>
			<point x="-253" y="1030"/>
			<point x="-281" y="1027" type="curve" smooth="yes"/>
			<point x="-327" y="1023" type="line"/>
			<point x="-323" y="1061" type="line" smooth="yes"/>
			<point x="-320" y="1091"/>
			<point x="-330" y="1112"/>
			<point x="-360" y="1112" type="curve" smooth="yes"/>
			<point x="-382" y="1112"/>
			<point x="-393" y="1097"/>
			<point x="-391" y="1076" type="curve" smooth="yes"/>
			<point x="-386" y="1023" type="line"/>
			<point x="-423" y="1027" type="line" smooth="yes"/>
			<point x="-453" y="1030"/>
			<point x="-473" y="1023"/>
			<point x="-473" y="992" type="curve" smooth="yes"/>
			<point x="-473" y="969"/>
			<point x="-459" y="963"/>
			<point x="-431" y="965" type="curve" smooth="yes"/>
			<point x="-386" y="969" type="line"/>
			<point x="-390" y="931" type="line" smooth="yes"/>
			<point x="-393" y="900"/>
			<point x="-383" y="880"/>
		</contour>
	</outline>
</glyph>
<glyph name="nikhahit_maiEk-thai" format="2">
	<advance width="0"/>
	<anchor x="-81" y="512" name="top"/>
	<anchor x="-81" y="278" name="_top"/>
	<outline>
		<contour>
			<point x="-128" y="629" type="curve" smooth="yes"/>
			<point x="-74" y="629"/>
			<point x="-27" y="663"/>
			<point x="-27" y="725" type="curve" smooth="yes"/>
			<point x="-27" y="788"/>
			<point x="-74" y="822"/>
			<point x="-128" y="822" type="curve" smooth="yes"/>
			<point x="-182" y="822"/>
			<point x="-229" y="788"/>
			<point x="-229" y="725" type="curve" smooth="yes"/>
			<point x="-229" y="663"/>
			<point x="-182" y="629"/>
		</contour>
		<contour>
			<point x="-128" y="676" type="curve" smooth="yes"/>
			<point x="-154" y="676"/>
			<point x="-174" y="693"/>
			<point x="-174" y="725" type="curve" smooth="yes"/>
			<point x="-174" y="758"/>
			<point x="-154" y="774"/>
			<point x="-128" y="774" type="curve" smooth="yes"/>
			<point x="-103" y="774"/>
			<point x="-82" y="758"/>
			<point x="-82" y="725" type="curve" smooth="yes"/>
			<point x="-82" y="694"/>
			<point x="-103" y="676"/>
		</contour>
		<contour>
			<point x="-114" y="880" type="curve" smooth="yes"/>
			<point x="-92" y="880"/>
			<point x="-84" y="894"/>
			<point x="-84" y="910" type="curve" smooth="yes"/>
			<point x="-84" y="1025" type="line" smooth="yes"/>
			<point x="-84" y="1050"/>
			<point x="-94" y="1065"/>
			<point x="-123" y="1065" type="curve" smooth="yes"/>
			<point x="-144" y="1065"/>
			<point x="-154" y="1052"/>
			<point x="-154" y="1035" type="curve" smooth="yes"/>
			<point x="-154" y="920" type="line" smooth="yes"/>
			<point x="-154" y="895"/>
			<point x="-142" y="880"/>
		</contour>
	</outline>
</glyph>
<glyph name="nikhahit_maiEk-thai.narrow" format="2">
	<advance width="0"/>
	<anchor x="-315" y="512" name="top"/>
	<anchor x="-233" y="278" name="_top"/>
	<outline>
		<contour>
			<point x="-354" y="629" type="curve" smooth="yes"/>
			<point x="-300" y="629"/>
			<point x="-254" y="663"/>
			<point x="-254" y="725" type="curve" smooth="yes"/>
			<point x="-254" y="788"/>
			<point x="-300" y="822"/>
			<point x="-354" y="822" type="curve" smooth="yes"/>
			<point x="-409" y="822"/>
			<point x="-456" y="788"/>
			<point x="-456" y="725" type="curve" smooth="yes"/>
			<point x="-456" y="663"/>
			<point x="-409" y="629"/>
		</contour>
		<contour>
			<point x="-354" y="676" type="curve" smooth="yes"/>
			<point x="-380" y="676"/>
			<point x="-401" y="693"/>
			<point x="-401" y="725" type="curve" smooth="yes"/>
			<point x="-401" y="758"/>
			<point x="-380" y="774"/>
			<point x="-354" y="774" type="curve" smooth="yes"/>
			<point x="-329" y="774"/>
			<point x="-309" y="758"/>
			<point x="-309" y="725" type="curve" smooth="yes"/>
			<point x="-309" y="694"/>
			<point x="-329" y="676"/>
		</contour>
		<contour>
			<point x="-344" y="880" type="curve" smooth="yes"/>
			<point x="-322" y="880"/>
			<point x="-314" y="894"/>
			<point x="-314" y="910" type="curve" smooth="yes"/>
			<point x="-314" y="1025" type="line" smooth="yes"/>
			<point x="-314" y="1050"/>
			<point x="-324" y="1065"/>
			<point x="-353" y="1065" type="curve" smooth="yes"/>
			<point x="-374" y="1065"/>
			<point x="-384" y="1052"/>
			<point x="-384" y="1035" type="curve" smooth="yes"/>
			<point x="-384" y="920" type="line" smooth="yes"/>
			<point x="-384" y="895"/>
			<point x="-372" y="880"/>
		</contour>
	</outline>
</glyph>
<glyph name="nikhahit_maiTho-thai" format="2">
	<advance width="0"/>
	<anchor x="-81" y="512" name="top"/>
	<anchor x="-81" y="278" name="_top"/>
	<outline>
		<contour>
			<point x="-128" y="629" type="curve" smooth="yes"/>
			<point x="-74" y="629"/>
			<point x="-27" y="663"/>
			<point x="-27" y="725" type="curve" smooth="yes"/>
			<point x="-27" y="788"/>
			<point x="-74" y="822"/>
			<point x="-128" y="822" type="curve" smooth="yes"/>
			<point x="-182" y="822"/>
			<point x="-229" y="788"/>
			<point x="-229" y="725" type="curve" smooth="yes"/>
			<point x="-229" y="663"/>
			<point x="-182" y="629"/>
		</contour>
		<contour>
			<point x="-128" y="676" type="curve" smooth="yes"/>
			<point x="-154" y="676"/>
			<point x="-174" y="693"/>
			<point x="-174" y="725" type="curve" smooth="yes"/>
			<point x="-174" y="758"/>
			<point x="-154" y="774"/>
			<point x="-128" y="774" type="curve" smooth="yes"/>
			<point x="-103" y="774"/>
			<point x="-82" y="758"/>
			<point x="-82" y="725" type="curve" smooth="yes"/>
			<point x="-82" y="694"/>
			<point x="-103" y="676"/>
		</contour>
		<contour>
			<point x="-258" y="880" type="curve" smooth="yes"/>
			<point x="-129" y="881"/>
			<point x="-50" y="918"/>
			<point x="-6" y="1000" type="curve" smooth="yes"/>
			<point x="2" y="1015"/>
			<point x="11" y="1034"/>
			<point x="11" y="1052" type="curve" smooth="yes"/>
			<point x="11" y="1070"/>
			<point x="-1" y="1085"/>
			<point x="-27" y="1085" type="curve" smooth="yes"/>
			<point x="-40" y="1085"/>
			<point x="-46" y="1078"/>
			<point x="-50" y="1066" type="curve" smooth="yes"/>
			<point x="-75" y="982"/>
			<point x="-115" y="940"/>
			<point x="-205" y="927" type="curve"/>
			<point x="-176" y="951"/>
			<point x="-161" y="982"/>
			<point x="-161" y="1019" type="curve" smooth="yes"/>
			<point x="-161" y="1060"/>
			<point x="-186" y="1094"/>
			<point x="-233" y="1094" type="curve" smooth="yes"/>
			<point x="-273" y="1094"/>
			<point x="-301" y="1067"/>
			<point x="-301" y="1032" type="curve" smooth="yes"/>
			<point x="-301" y="996"/>
			<point x="-273" y="973"/>
			<point x="-242" y="973" type="curve" smooth="yes"/>
			<point x="-232" y="973"/>
			<point x="-224" y="975"/>
			<point x="-218" y="979" type="curve"/>
			<point x="-216" y="976" type="line"/>
			<point x="-225" y="957"/>
			<point x="-247" y="939"/>
			<point x="-271" y="929" type="curve"/>
			<point x="-271" y="891" type="line" smooth="yes"/>
			<point x="-271" y="883"/>
			<point x="-266" y="880"/>
		</contour>
		<contour>
			<point x="-234" y="1002" type="curve" smooth="yes"/>
			<point x="-251" y="1002"/>
			<point x="-264" y="1014"/>
			<point x="-264" y="1033" type="curve" smooth="yes"/>
			<point x="-264" y="1053"/>
			<point x="-251" y="1064"/>
			<point x="-234" y="1064" type="curve" smooth="yes"/>
			<point x="-217" y="1064"/>
			<point x="-204" y="1053"/>
			<point x="-204" y="1033" type="curve" smooth="yes"/>
			<point x="-204" y="1012"/>
			<point x="-217" y="1002"/>
		</contour>
	</outline>
</glyph>
<glyph name="nikhahit_maiTho-thai.narrow" format="2">
	<advance width="0"/>
	<anchor x="-315" y="512" name="top"/>
	<anchor x="-233" y="278" name="_top"/>
	<outline>
		<contour>
			<point x="-354" y="629" type="curve" smooth="yes"/>
			<point x="-300" y="629"/>
			<point x="-254" y="663"/>
			<point x="-254" y="725" type="curve" smooth="yes"/>
			<point x="-254" y="788"/>
			<point x="-300" y="822"/>
			<point x="-354" y="822" type="curve" smooth="yes"/>
			<point x="-409" y="822"/>
			<point x="-456" y="788"/>
			<point x="-456" y="725" type="curve" smooth="yes"/>
			<point x="-456" y="663"/>
			<point x="-409" y="629"/>
		</contour>
		<contour>
			<point x="-354" y="676" type="curve" smooth="yes"/>
			<point x="-380" y="676"/>
			<point x="-401" y="693"/>
			<point x="-401" y="725" type="curve" smooth="yes"/>
			<point x="-401" y="758"/>
			<point x="-380" y="774"/>
			<point x="-354" y="774" type="curve" smooth="yes"/>
			<point x="-329" y="774"/>
			<point x="-309" y="758"/>
			<point x="-309" y="725" type="curve" smooth="yes"/>
			<point x="-309" y="694"/>
			<point x="-329" y="676"/>
		</contour>
		<contour>
			<point x="-468" y="880" type="curve" smooth="yes"/>
			<point x="-339" y="881"/>
			<point x="-260" y="918"/>
			<point x="-216" y="1000" type="curve" smooth="yes"/>
			<point x="-208" y="1015"/>
			<point x="-199" y="1034"/>
			<point x="-199" y="1052" type="curve" smooth="yes"/>
			<point x="-199" y="1070"/>
			<point x="-211" y="1085"/>
			<point x="-237" y="1085" type="curve" smooth="yes"/>
			<point x="-250" y="1085"/>
			<point x="-256" y="1078"/>
			<point x="-260" y="1066" type="curve" smooth="yes"/>
			<point x="-285" y="982"/>
			<point x="-325" y="940"/>
			<point x="-415" y="927" type="curve"/>
			<point x="-386" y="951"/>
			<point x="-371" y="982"/>
			<point x="-371" y="1019" type="curve" smooth="yes"/>
			<point x="-371" y="1060"/>
			<point x="-396" y="1094"/>
			<point x="-443" y="1094" type="curve" smooth="yes"/>
			<point x="-483" y="1094"/>
			<point x="-511" y="1067"/>
			<point x="-511" y="1032" type="curve" smooth="yes"/>
			<point x="-511" y="996"/>
			<point x="-483" y="973"/>
			<point x="-452" y="973" type="curve" smooth="yes"/>
			<point x="-442" y="973"/>
			<point x="-434" y="975"/>
			<point x="-428" y="979" type="curve"/>
			<point x="-426" y="976" type="line"/>
			<point x="-435" y="957"/>
			<point x="-457" y="939"/>
			<point x="-481" y="929" type="curve"/>
			<point x="-481" y="891" type="line" smooth="yes"/>
			<point x="-481" y="883"/>
			<point x="-476" y="880"/>
		</contour>
		<contour>
			<point x="-444" y="1002" type="curve" smooth="yes"/>
			<point x="-461" y="1002"/>
			<point x="-474" y="1014"/>
			<point x="-474" y="1033" type="curve" smooth="yes"/>
			<point x="-474" y="1053"/>
			<point x="-461" y="1064"/>
			<point x="-444" y="1064" type="curve" smooth="yes"/>
			<point x="-427" y="1064"/>
			<point x="-414" y="1053"/>
			<point x="-414" y="1033" type="curve" smooth="yes"/>
			<point x="-414" y="1012"/>
			<point x="-427" y="1002"/>
		</contour>
	</outline>
</glyph>
<glyph name="nikhahit_maiTri-thai" format="2">
	<advance width="0"/>
	<anchor x="-81" y="512" name="top"/>
	<anchor x="-81" y="278" name="_top"/>
	<outline>
		<contour>
			<point x="-128" y="629" type="curve" smooth="yes"/>
			<point x="-74" y="629"/>
			<point x="-27" y="663"/>
			<point x="-27" y="725" type="curve" smooth="yes"/>
			<point x="-27" y="788"/>
			<point x="-74" y="822"/>
			<point x="-128" y="822" type="curve" smooth="yes"/>
			<point x="-182" y="822"/>
			<point x="-229" y="788"/>
			<point x="-229" y="725" type="curve" smooth="yes"/>
			<point x="-229" y="663"/>
			<point x="-182" y="629"/>
		</contour>
		<contour>
			<point x="-128" y="676" type="curve" smooth="yes"/>
			<point x="-154" y="676"/>
			<point x="-174" y="693"/>
			<point x="-174" y="725" type="curve" smooth="yes"/>
			<point x="-174" y="758"/>
			<point x="-154" y="774"/>
			<point x="-128" y="774" type="curve" smooth="yes"/>
			<point x="-103" y="774"/>
			<point x="-82" y="758"/>
			<point x="-82" y="725" type="curve" smooth="yes"/>
			<point x="-82" y="694"/>
			<point x="-103" y="676"/>
		</contour>
		<contour>
			<point x="-298" y="877" type="curve" smooth="yes"/>
			<point x="-261" y="877"/>
			<point x="-233" y="902"/>
			<point x="-233" y="937" type="curve" smooth="yes"/>
			<point x="-233" y="973"/>
			<point x="-260" y="993"/>
			<point x="-290" y="993" type="curve" smooth="yes"/>
			<point x="-299" y="993"/>
			<point x="-308" y="991"/>
			<point x="-315" y="986" type="curve"/>
			<point x="-317" y="988" type="line"/>
			<point x="-316" y="1016"/>
			<point x="-303" y="1034"/>
			<point x="-280" y="1034" type="curve" smooth="yes"/>
			<point x="-256" y="1034"/>
			<point x="-243" y="1016"/>
			<point x="-242" y="1001" type="curve"/>
			<point x="-214" y="1001" type="line"/>
			<point x="-213" y="1017"/>
			<point x="-203" y="1034"/>
			<point x="-184" y="1034" type="curve" smooth="yes"/>
			<point x="-164" y="1034"/>
			<point x="-157" y="1021"/>
			<point x="-157" y="996" type="curve" smooth="yes"/>
			<point x="-157" y="900" type="line" smooth="yes"/>
			<point x="-157" y="891"/>
			<point x="-153" y="886"/>
			<point x="-143" y="886" type="curve" smooth="yes"/>
			<point x="-73" y="886" type="line" smooth="yes"/>
			<point x="-28" y="886"/>
			<point x="-1" y="902"/>
			<point x="-1" y="951" type="curve" smooth="yes"/>
			<point x="-1" y="1063" type="line" smooth="yes"/>
			<point x="-1" y="1087"/>
			<point x="-14" y="1095"/>
			<point x="-32" y="1095" type="curve" smooth="yes"/>
			<point x="-48" y="1095"/>
			<point x="-58" y="1086"/>
			<point x="-58" y="1071" type="curve" smooth="yes"/>
			<point x="-58" y="951" type="line" smooth="yes"/>
			<point x="-58" y="928"/>
			<point x="-67" y="919"/>
			<point x="-88" y="919" type="curve" smooth="yes"/>
			<point x="-101" y="919" type="line"/>
			<point x="-101" y="1009" type="line" smooth="yes"/>
			<point x="-101" y="1052"/>
			<point x="-124" y="1079"/>
			<point x="-169" y="1079" type="curve" smooth="yes"/>
			<point x="-197" y="1079"/>
			<point x="-219" y="1063"/>
			<point x="-227" y="1043" type="curve"/>
			<point x="-235" y="1063"/>
			<point x="-258" y="1079"/>
			<point x="-288" y="1079" type="curve" smooth="yes"/>
			<point x="-339" y="1079"/>
			<point x="-374" y="1041"/>
			<point x="-374" y="970" type="curve" smooth="yes"/>
			<point x="-374" y="909"/>
			<point x="-339" y="877"/>
		</contour>
		<contour>
			<point x="-297" y="905" type="curve" smooth="yes"/>
			<point x="-313" y="905"/>
			<point x="-326" y="917"/>
			<point x="-326" y="935" type="curve" smooth="yes"/>
			<point x="-326" y="956"/>
			<point x="-313" y="965"/>
			<point x="-297" y="965" type="curve" smooth="yes"/>
			<point x="-281" y="965"/>
			<point x="-268" y="954"/>
			<point x="-268" y="935" type="curve" smooth="yes"/>
			<point x="-268" y="917"/>
			<point x="-281" y="905"/>
		</contour>
	</outline>
</glyph>
<glyph name="nikhahit_maiTri-thai.narrow" format="2">
	<advance width="0"/>
	<anchor x="-315" y="512" name="top"/>
	<anchor x="-233" y="278" name="_top"/>
	<outline>
		<contour>
			<point x="-354" y="629" type="curve" smooth="yes"/>
			<point x="-300" y="629"/>
			<point x="-254" y="663"/>
			<point x="-254" y="725" type="curve" smooth="yes"/>
			<point x="-254" y="788"/>
			<point x="-300" y="822"/>
			<point x="-354" y="822" type="curve" smooth="yes"/>
			<point x="-409" y="822"/>
			<point x="-456" y="788"/>
			<point x="-456" y="725" type="curve" smooth="yes"/>
			<point x="-456" y="663"/>
			<point x="-409" y="629"/>
		</contour>
		<contour>
			<point x="-354" y="676" type="curve" smooth="yes"/>
			<point x="-380" y="676"/>
			<point x="-401" y="693"/>
			<point x="-401" y="725" type="curve" smooth="yes"/>
			<point x="-401" y="758"/>
			<point x="-380" y="774"/>
			<point x="-354" y="774" type="curve" smooth="yes"/>
			<point x="-329" y="774"/>
			<point x="-309" y="758"/>
			<point x="-309" y="725" type="curve" smooth="yes"/>
			<point x="-309" y="694"/>
			<point x="-329" y="676"/>
		</contour>
		<contour>
			<point x="-478" y="877" type="curve" smooth="yes"/>
			<point x="-441" y="877"/>
			<point x="-413" y="902"/>
			<point x="-413" y="937" type="curve" smooth="yes"/>
			<point x="-413" y="973"/>
			<point x="-440" y="993"/>
			<point x="-470" y="993" type="curve" smooth="yes"/>
			<point x="-479" y="993"/>
			<point x="-488" y="991"/>
			<point x="-495" y="986" type="curve"/>
			<point x="-497" y="988" type="line"/>
			<point x="-496" y="1016"/>
			<point x="-483" y="1034"/>
			<point x="-460" y="1034" type="curve" smooth="yes"/>
			<point x="-436" y="1034"/>
			<point x="-423" y="1016"/>
			<point x="-422" y="1001" type="curve"/>
			<point x="-394" y="1001" type="line"/>
			<point x="-393" y="1017"/>
			<point x="-383" y="1034"/>
			<point x="-364" y="1034" type="curve" smooth="yes"/>
			<point x="-344" y="1034"/>
			<point x="-337" y="1021"/>
			<point x="-337" y="996" type="curve" smooth="yes"/>
			<point x="-337" y="900" type="line" smooth="yes"/>
			<point x="-337" y="891"/>
			<point x="-333" y="886"/>
			<point x="-323" y="886" type="curve" smooth="yes"/>
			<point x="-253" y="886" type="line" smooth="yes"/>
			<point x="-208" y="886"/>
			<point x="-181" y="902"/>
			<point x="-181" y="951" type="curve" smooth="yes"/>
			<point x="-181" y="1063" type="line" smooth="yes"/>
			<point x="-181" y="1087"/>
			<point x="-194" y="1095"/>
			<point x="-212" y="1095" type="curve" smooth="yes"/>
			<point x="-228" y="1095"/>
			<point x="-238" y="1086"/>
			<point x="-238" y="1071" type="curve" smooth="yes"/>
			<point x="-238" y="951" type="line" smooth="yes"/>
			<point x="-238" y="928"/>
			<point x="-247" y="919"/>
			<point x="-268" y="919" type="curve" smooth="yes"/>
			<point x="-281" y="919" type="line"/>
			<point x="-281" y="1009" type="line" smooth="yes"/>
			<point x="-281" y="1052"/>
			<point x="-304" y="1079"/>
			<point x="-349" y="1079" type="curve" smooth="yes"/>
			<point x="-377" y="1079"/>
			<point x="-399" y="1063"/>
			<point x="-407" y="1043" type="curve"/>
			<point x="-415" y="1063"/>
			<point x="-438" y="1079"/>
			<point x="-468" y="1079" type="curve" smooth="yes"/>
			<point x="-519" y="1079"/>
			<point x="-554" y="1041"/>
			<point x="-554" y="970" type="curve" smooth="yes"/>
			<point x="-554" y="909"/>
			<point x="-519" y="877"/>
		</contour>
		<contour>
			<point x="-477" y="905" type="curve" smooth="yes"/>
			<point x="-493" y="905"/>
			<point x="-506" y="917"/>
			<point x="-506" y="935" type="curve" smooth="yes"/>
			<point x="-506" y="956"/>
			<point x="-493" y="965"/>
			<point x="-477" y="965" type="curve" smooth="yes"/>
			<point x="-461" y="965"/>
			<point x="-448" y="954"/>
			<point x="-448" y="935" type="curve" smooth="yes"/>
			<point x="-448" y="917"/>
			<point x="-461" y="905"/>
		</contour>
	</outline>
</glyph>
<glyph name="phinthu-thai.small" format="2">
	<advance width="0"/>
	<anchor x="-82" y="-180" name="_bottom"/>
	<anchor x="-82" y="-430" name="bottom"/>
	<note>
		phinthu-thai.small
	</note>
	<outline>
		<contour>
			<point x="-136" y="-392" type="curve" smooth="yes"/>
			<point x="-101" y="-392"/>
			<point x="-70" y="-365"/>
			<point x="-70" y="-326" type="curve" smooth="yes"/>
			<point x="-70" y="-286"/>
			<point x="-101" y="-260"/>
			<point x="-136" y="-260" type="curve" smooth="yes"/>
			<point x="-171" y="-260"/>
			<point x="-202" y="-286"/>
			<point x="-202" y="-326" type="curve" smooth="yes"/>
			<point x="-202" y="-365"/>
			<point x="-171" y="-392"/>
		</contour>
	</outline>
</glyph>
<glyph name="saraI-thai.narrow" format="2">
	<advance width="0"/>
	<anchor x="-223" y="492" name="top"/>
	<anchor x="-223" y="278" name="_top"/>
	<note>
		saraI-thai.narrow
	</note>
	<outline>
		<contour>
			<point x="-606" y="638" type="curve" smooth="yes"/>
			<point x="-230" y="638" type="line" smooth="yes"/>
			<point x="-222" y="638"/>
			<point x="-216" y="642"/>
			<point x="-216" y="652" type="curve" smooth="yes"/>
			<point x="-216" y="676" type="line"/>
			<point x="-238" y="748"/>
			<point x="-307" y="808"/>
			<point x="-418" y="808" type="curve" smooth="yes"/>
			<point x="-528" y="808"/>
			<point x="-598" y="748"/>
			<point x="-620" y="676" type="curve"/>
			<point x="-620" y="652" type="line" smooth="yes"/>
			<point x="-620" y="642"/>
			<point x="-614" y="638"/>
		</contour>
		<contour>
			<point x="-544" y="683" type="line"/>
			<point x="-528" y="727"/>
			<point x="-483" y="758"/>
			<point x="-419" y="758" type="curve" smooth="yes"/>
			<point x="-354" y="758"/>
			<point x="-309" y="727"/>
			<point x="-293" y="683" type="curve"/>
		</contour>
	</outline>
</glyph>
